<svg xmlns="http://www.w3.org/2000/svg" version="1.1" width="174" height="40"><path d="M20 0C8.955 0 0 8.955 0 20s8.955 20 20 20 20-8.955 20-20S31.045 0 20 0zm0 3.633c.606.005 1.216.039 1.816.111V17.98c.553.5.909 1.217.909 2.02 0 .048-.01.09-.014.139l7.469 7.47a12.799 12.799 0 01-2.57 2.577l-7.471-7.471c-.048.005-.09.015-.139.015a2.727 2.727 0 01-2.725-2.726c0-.803.356-1.518.909-2.018V3.758c.6-.072 1.21-.116 1.816-.125zm119.68 4.144c-.76 0-1.374.216-1.85.659a2.15 2.15 0 00-.713 1.638c0 .654.237 1.197.713 1.639.476.437 1.095.66 1.85.664.76 0 1.375-.227 1.851-.674.48-.452.715-1.018.715-1.705 0-.634-.239-1.163-.715-1.586-.476-.423-1.097-.635-1.851-.635zm-90.44.047v3.78h6.614v16.25h4.632v-16.25h6.412V7.825H49.24zm86.301 6.662c-1.024 0-1.927.165-2.71.496-.784.332-1.409.817-1.87 1.461v-1.95h-3.777v13.366h3.859l.09-6.142c0-1.235.318-2.163.943-2.783.63-.62 1.494-.928 2.6-.928.149 0 .437.013.865.047v-3.567zm-33.967.006c-1.115 0-2.134.255-3.056.77a5.7 5.7 0 00-2.204 2.162c-.543.927-.812 1.999-.812 3.215 0 1.21.27 2.289.812 3.216a5.734 5.734 0 002.204 2.163c.922.514 1.941.77 3.056.77 1.64 0 2.918-.53 3.836-1.587v.543c0 1.168-.29 2.039-.87 2.615-.583.577-1.477.866-2.698.866a7.42 7.42 0 01-2.344-.391c-.783-.26-1.237-.404-1.746-.846l-1.961 2.057c.692.572 1.932 1.39 2.984 1.687 1.053.298 2.17.448 3.342.448 2.226 0 3.918-.567 5.076-1.701 1.159-1.14 1.739-2.874 1.739-5.206V14.496h-3.34v1.816c-.918-1.216-2.259-1.82-4.018-1.82zm36.197 0V27.86h3.86V14.492h-3.86zm6.167 0v13.362h3.812v-6.499c0-1.172.283-2.056.855-2.652.572-.596 1.336-.894 2.297-.894.866 0 1.524.255 1.98.77.453.513.684 1.292.684 2.335v6.94h3.81v-7.528c0-1.922-.503-3.374-1.503-4.35-1-.975-2.317-1.464-3.941-1.464-.9 0-1.721.148-2.471.45a5.11 5.11 0 00-1.879 1.284v-1.754h-3.644zm22.933 0c-1.37 0-2.601.288-3.687.86-1.091.572-1.943 1.364-2.553 2.378-.61 1.015-.918 2.17-.918 3.457 0 1.289.307 2.441.918 3.456.615 1.014 1.466 1.807 2.553 2.378 1.086.577 2.317.862 3.687.862 1.37 0 2.59-.29 3.672-.862 1.077-.571 1.927-1.364 2.537-2.378.61-1.015.918-2.167.918-3.456 0-1.288-.307-2.442-.918-3.457a6.374 6.374 0 00-2.537-2.378c-1.077-.572-2.302-.86-3.672-.86zm-95.4.004c-1.043 0-2.063.134-3.053.408-.99.274-.629.188-1.475.573v3.187c.467-.365 1.31-.635 1.979-.852a6.58 6.58 0 012.039-.326c1 0 1.744.222 2.244.664.5.443.75 1.071.75 1.893h-2.994c-1.899 0-3.303.347-4.211 1.039-.908.687-1.365 1.64-1.365 2.846 0 .76.197 1.431.582 2.027.39.596.947 1.062 1.678 1.399.73.336 1.595.505 2.595.505 1.928 0 3.249-.602 3.955-1.808v1.803h3.524V20.26c0-1.932-.539-3.374-1.615-4.33-1.077-.957-2.62-1.434-4.633-1.434zm8.525 0V27.86h3.822v-6.513c0-1.178.284-2.062.856-2.659.572-.596 1.341-.894 2.303-.894.865 0 1.527.261 1.984.775.457.515.687 1.293.687 2.336v6.955h3.823v-7.543c0-1.927-.502-3.378-1.506-4.359-1-.98-2.321-1.47-3.965-1.46-.894 0-1.72.15-2.47.452-.75.298-1.38.73-1.885 1.283v-1.736h-3.649zm38.19 0c-1.308 0-2.487.284-3.54.856a6.35 6.35 0 00-2.484 2.388c-.6 1.024-.904 2.173-.904 3.442 0 1.288.31 2.437.92 3.45.61 1.015 1.479 1.81 2.603 2.382 1.13.572 2.423.855 3.889.855 2.35 0 4.138-.703 5.36-2.101l-2.005-2.172c-.451.432-.937.749-1.46.95-.524.203-1.122.304-1.8.304-.98 0-1.802-.235-2.46-.702-.659-.466-1.076-1.105-1.254-1.908h9.824c.048-.625.073-.967.068-1.006 0-1.35-.294-2.536-.88-3.56a6.02 6.02 0 00-2.426-2.356c-1.029-.548-2.183-.822-3.451-.822zm.027 2.846c.836 0 1.543.246 2.125.736.577.49.933 1.143 1.062 1.965h-6.396c.13-.836.479-1.5 1.06-1.98.582-.481 1.298-.721 2.149-.721zm-15.938.168c.938 0 1.697.288 2.293.865.592.577.889 1.332.889 2.26 0 .932-.293 1.68-.889 2.258-.596.576-1.36.865-2.293.865-.932 0-1.702-.289-2.302-.865-.601-.577-.903-1.326-.903-2.258 0-.933.302-1.683.903-2.26.6-.577 1.365-.865 2.302-.865zm64.596.072c.966 0 1.759.327 2.379.98.62.654.932 1.53.932 2.625 0 1.096-.312 1.972-.932 2.625-.62.65-1.413.976-2.379.981-.966 0-1.765-.327-2.394-.98-.63-.654-.942-1.53-.942-2.625 0-1.096.312-1.972.942-2.625.63-.654 1.428-.981 2.394-.981zM71.38 22.244h2.582v.74c0 .731-.348 1.429-.953 1.832l-.11.067c-.5.298-1.071.447-1.71.447-.659 0-1.18-.138-1.56-.422-.379-.279-.566-.664-.566-1.144 0-1.015.774-1.52 2.317-1.52z" fill="#eb6022"/></svg>
